<svg width="302" height="274" viewBox="0 0 302 274" fill="none" xmlns="http://www.w3.org/2000/svg">
<rect width="301.279" height="273.35" fill="white"/>
<path d="M223.867 60.8199L297.095 185.725H150.64L223.867 60.8199Z" fill="white" stroke="black" stroke-width="6.27665" stroke-linejoin="round"/>
<path d="M150.64 3.49323L255.25 185.725H46.0287L150.64 3.49323Z" fill="white" stroke="#A7A7A7" stroke-width="6.27665" stroke-linejoin="bevel"/>
<path d="M166.75 33.935L139.691 67.436M168.19 85.624L139.807 67.6425M126.609 110.079L168.656 85.9994M193.913 144.996L124.487 184.679M127.163 110.501L193.766 144.865" stroke="#FFB905" stroke-width="7.32275" stroke-linecap="round"/>
<path d="M150.64 3.49323L255.25 185.725H46.0287L150.64 3.49323Z" stroke="black" stroke-width="6.27665" stroke-linejoin="round"/>
<path d="M56.4898 95.7599L108.795 185.725H4.18443L56.4898 95.7599Z" fill="white" stroke="black" stroke-width="6.27665" stroke-linejoin="round"/>
<path d="M5.05071 231.24C4.30504 231.24 3.72885 231.048 3.32212 230.664C2.93799 230.258 2.74592 229.681 2.74592 228.936V209.65C2.74592 208.904 2.93799 208.339 3.32212 207.955C3.72885 207.549 4.30504 207.345 5.05071 207.345H13.1852C14.8573 207.345 16.2809 207.594 17.4559 208.091C18.6309 208.588 19.5234 209.3 20.1335 210.226C20.7662 211.153 21.0825 212.26 21.0825 213.548C21.0825 214.994 20.6645 216.214 19.8284 217.208C18.9924 218.203 17.8513 218.869 16.4052 219.208V218.7C18.0773 218.948 19.3765 219.581 20.303 220.598C21.2294 221.615 21.6926 222.936 21.6926 224.563C21.6926 226.687 20.9695 228.337 19.5234 229.512C18.0999 230.664 16.1114 231.24 13.5581 231.24H5.05071ZM6.91487 227.953H13.0158C14.5523 227.953 15.6821 227.659 16.4052 227.071C17.1282 226.461 17.4898 225.558 17.4898 224.36C17.4898 223.14 17.1282 222.236 16.4052 221.648C15.6821 221.061 14.5523 220.767 13.0158 220.767H6.91487V227.953ZM6.91487 217.48H12.4396C13.9309 217.48 15.0381 217.197 15.7612 216.632C16.5068 216.045 16.8797 215.186 16.8797 214.056C16.8797 212.926 16.5068 212.079 15.7612 211.514C15.0381 210.927 13.9309 210.633 12.4396 210.633H6.91487V217.48ZM36.7915 231.579C34.4868 231.579 32.4644 231.071 30.7245 230.054C29.0072 229.037 27.6741 227.614 26.7251 225.784C25.776 223.931 25.3015 221.761 25.3015 219.276C25.3015 217.4 25.5727 215.717 26.115 214.226C26.6573 212.712 27.4255 211.424 28.4198 210.362C29.4366 209.277 30.6455 208.452 32.0464 207.888C33.4699 207.3 35.0517 207.006 36.7915 207.006C39.1189 207.006 41.1413 207.515 42.8586 208.532C44.5758 209.526 45.909 210.938 46.858 212.768C47.8071 214.599 48.2816 216.756 48.2816 219.242C48.2816 221.117 48.0104 222.812 47.4681 224.326C46.9258 225.84 46.1463 227.139 45.1294 228.224C44.1352 229.308 42.9263 230.145 41.5028 230.732C40.1018 231.297 38.5314 231.579 36.7915 231.579ZM36.7915 227.851C38.2603 227.851 39.5031 227.512 40.5199 226.834C41.5593 226.156 42.3501 225.173 42.8924 223.885C43.4573 222.598 43.7398 221.061 43.7398 219.276C43.7398 216.564 43.1297 214.463 41.9095 212.972C40.7119 211.48 39.0059 210.735 36.7915 210.735C35.3454 210.735 34.1026 211.074 33.0632 211.751C32.0238 212.407 31.2216 213.378 30.6568 214.666C30.1144 215.932 29.8433 217.468 29.8433 219.276C29.8433 221.965 30.4534 224.066 31.6736 225.58C32.8937 227.094 34.5997 227.851 36.7915 227.851ZM62.624 231.579C60.9745 231.579 59.517 231.365 58.2517 230.935C57.0089 230.506 55.9582 229.873 55.0995 229.037C54.2409 228.179 53.5969 227.117 53.1676 225.851C52.7383 224.586 52.5236 223.117 52.5236 221.445V209.277C52.5236 208.532 52.7044 207.978 53.0659 207.616C53.45 207.255 53.9923 207.074 54.6928 207.074C55.3933 207.074 55.9243 207.255 56.2858 207.616C56.67 207.978 56.862 208.532 56.862 209.277V221.411C56.862 223.558 57.3478 225.173 58.3195 226.258C59.3137 227.32 60.7485 227.851 62.624 227.851C64.4995 227.851 65.923 227.32 66.8946 226.258C67.8662 225.173 68.3521 223.558 68.3521 221.411V209.277C68.3521 208.532 68.5328 207.978 68.8944 207.616C69.2785 207.255 69.8208 207.074 70.5213 207.074C71.1991 207.074 71.7189 207.255 72.0804 207.616C72.4645 207.978 72.6566 208.532 72.6566 209.277V221.445C72.6566 223.66 72.2725 225.524 71.5042 227.038C70.7585 228.552 69.64 229.693 68.1487 230.461C66.6574 231.207 64.8158 231.579 62.624 231.579ZM79.8855 231.512C79.185 231.512 78.6427 231.32 78.2586 230.935C77.8971 230.529 77.7163 229.975 77.7163 229.275V209.548C77.7163 208.825 77.9084 208.283 78.2925 207.921C78.6766 207.537 79.2189 207.345 79.9194 207.345H88.0878C90.709 207.345 92.7313 207.978 94.1548 209.243C95.5784 210.486 96.2902 212.237 96.2902 214.497C96.2902 215.966 95.9625 217.231 95.3072 218.293C94.6746 219.355 93.7481 220.168 92.5279 220.733C91.3078 221.298 89.8277 221.581 88.0878 221.581L88.3929 221.072H89.5114C90.4378 221.072 91.24 221.298 91.9178 221.75C92.6183 222.202 93.2284 222.914 93.7481 223.885L96.2902 228.597C96.5613 229.071 96.6856 229.534 96.663 229.986C96.6404 230.438 96.4709 230.811 96.1546 231.105C95.8382 231.376 95.375 231.512 94.7649 231.512C94.1548 231.512 93.6577 231.387 93.2736 231.139C92.8895 230.868 92.5505 230.461 92.2568 229.919L88.8335 223.614C88.4268 222.846 87.941 222.338 87.3761 222.089C86.8338 221.818 86.1333 221.682 85.2746 221.682H82.0547V229.275C82.0547 229.975 81.874 230.529 81.5124 230.935C81.1509 231.32 80.6086 231.512 79.8855 231.512ZM82.0547 218.462H87.3422C88.9013 218.462 90.0763 218.146 90.8671 217.513C91.6806 216.858 92.0873 215.887 92.0873 214.599C92.0873 213.333 91.6806 212.384 90.8671 211.751C90.0763 211.096 88.9013 210.769 87.3422 210.769H82.0547V218.462ZM112.277 231.579C109.633 231.579 107.396 231.082 105.566 230.088C103.758 229.094 102.38 227.682 101.431 225.851C100.482 224.021 100.007 221.852 100.007 219.344C100.007 217.446 100.278 215.74 100.821 214.226C101.385 212.712 102.188 211.424 103.227 210.362C104.289 209.277 105.577 208.452 107.091 207.888C108.605 207.3 110.322 207.006 112.243 207.006C113.508 207.006 114.774 207.164 116.039 207.481C117.327 207.775 118.536 208.283 119.666 209.006C120.05 209.255 120.298 209.56 120.411 209.921C120.547 210.283 120.569 210.656 120.479 211.04C120.389 211.401 120.219 211.718 119.971 211.989C119.722 212.26 119.406 212.429 119.022 212.497C118.66 212.565 118.253 212.475 117.801 212.226C116.943 211.729 116.073 211.367 115.192 211.141C114.31 210.915 113.327 210.802 112.243 210.802C110.571 210.802 109.158 211.141 108.006 211.819C106.854 212.475 105.984 213.435 105.396 214.7C104.831 215.966 104.549 217.513 104.549 219.344C104.549 222.123 105.215 224.236 106.549 225.682C107.882 227.128 109.859 227.851 112.48 227.851C113.384 227.851 114.299 227.761 115.225 227.58C116.152 227.399 117.056 227.151 117.937 226.834L117.09 228.766V221.547H113.361C112.796 221.547 112.356 221.4 112.039 221.106C111.746 220.812 111.599 220.417 111.599 219.92C111.599 219.4 111.746 219.005 112.039 218.734C112.356 218.462 112.796 218.327 113.361 218.327H118.954C119.519 218.327 119.948 218.485 120.242 218.801C120.558 219.095 120.716 219.524 120.716 220.089V228.326C120.716 228.823 120.615 229.241 120.411 229.58C120.23 229.919 119.925 230.167 119.496 230.325C118.502 230.687 117.361 230.992 116.073 231.24C114.785 231.466 113.519 231.579 112.277 231.579ZM126.896 223.852C126.399 223.852 125.981 223.693 125.642 223.377C125.326 223.038 125.167 222.631 125.167 222.157C125.167 221.66 125.326 221.253 125.642 220.937C125.981 220.62 126.399 220.462 126.896 220.462H134.115C134.59 220.462 134.985 220.62 135.302 220.937C135.641 221.253 135.81 221.66 135.81 222.157C135.81 222.631 135.641 223.038 135.302 223.377C134.985 223.693 134.59 223.852 134.115 223.852H126.896ZM142.745 231.24C141.999 231.24 141.423 231.048 141.016 230.664C140.632 230.258 140.44 229.681 140.44 228.936V209.65C140.44 208.904 140.632 208.339 141.016 207.955C141.423 207.549 141.999 207.345 142.745 207.345H149.32C153.32 207.345 156.404 208.373 158.573 210.43C160.765 212.486 161.861 215.435 161.861 219.276C161.861 221.197 161.578 222.903 161.013 224.394C160.471 225.863 159.658 227.105 158.573 228.122C157.511 229.139 156.201 229.919 154.641 230.461C153.105 230.981 151.331 231.24 149.32 231.24H142.745ZM144.778 227.648H149.049C150.45 227.648 151.659 227.478 152.676 227.139C153.715 226.778 154.574 226.258 155.251 225.58C155.952 224.88 156.472 224.01 156.811 222.97C157.15 221.908 157.319 220.677 157.319 219.276C157.319 216.474 156.63 214.384 155.251 213.006C153.873 211.627 151.806 210.938 149.049 210.938H144.778V227.648ZM168.261 215.649C167.967 216.011 167.651 216.214 167.312 216.259C166.996 216.305 166.713 216.248 166.465 216.09C166.216 215.909 166.081 215.661 166.058 215.344C166.036 215.005 166.182 214.644 166.499 214.26C166.951 213.695 167.256 213.13 167.414 212.565C167.572 212 167.651 211.503 167.651 211.074L167.821 212.192C167.03 212.192 166.386 211.966 165.889 211.514C165.414 211.062 165.177 210.452 165.177 209.684C165.177 208.938 165.403 208.339 165.855 207.888C166.307 207.413 166.917 207.176 167.685 207.176C168.476 207.176 169.097 207.447 169.549 207.989C170.001 208.509 170.227 209.266 170.227 210.26C170.227 210.802 170.171 211.367 170.058 211.955C169.967 212.52 169.775 213.119 169.481 213.751C169.21 214.361 168.804 214.994 168.261 215.649ZM185.11 231.579C182.806 231.579 180.783 231.071 179.043 230.054C177.326 229.037 175.993 227.614 175.044 225.784C174.095 223.931 173.62 221.761 173.62 219.276C173.62 217.4 173.892 215.717 174.434 214.226C174.976 212.712 175.744 211.424 176.739 210.362C177.755 209.277 178.964 208.452 180.365 207.888C181.789 207.3 183.371 207.006 185.11 207.006C187.438 207.006 189.46 207.515 191.177 208.532C192.895 209.526 194.228 210.938 195.177 212.768C196.126 214.599 196.6 216.756 196.6 219.242C196.6 221.117 196.329 222.812 195.787 224.326C195.245 225.84 194.465 227.139 193.448 228.224C192.454 229.308 191.245 230.145 189.822 230.732C188.421 231.297 186.85 231.579 185.11 231.579ZM185.11 227.851C186.579 227.851 187.822 227.512 188.839 226.834C189.878 226.156 190.669 225.173 191.211 223.885C191.776 222.598 192.059 221.061 192.059 219.276C192.059 216.564 191.449 214.463 190.228 212.972C189.031 211.48 187.325 210.735 185.11 210.735C183.664 210.735 182.422 211.074 181.382 211.751C180.343 212.407 179.541 213.378 178.976 214.666C178.433 215.932 178.162 217.468 178.162 219.276C178.162 221.965 178.772 224.066 179.992 225.58C181.213 227.094 182.919 227.851 185.11 227.851ZM203.181 231.512C202.481 231.512 201.938 231.32 201.554 230.935C201.193 230.529 201.012 229.975 201.012 229.275V209.311C201.012 208.588 201.193 208.034 201.554 207.65C201.938 207.266 202.481 207.074 203.181 207.074C203.882 207.074 204.413 207.266 204.774 207.65C205.158 208.034 205.35 208.588 205.35 209.311V229.275C205.35 229.975 205.17 230.529 204.808 230.935C204.447 231.32 203.904 231.512 203.181 231.512ZM218.814 231.579C217.82 231.579 216.826 231.5 215.831 231.342C214.837 231.207 213.899 230.992 213.018 230.698C212.137 230.382 211.346 229.998 210.646 229.546C210.239 229.275 209.956 228.947 209.798 228.563C209.64 228.179 209.584 227.806 209.629 227.444C209.696 227.06 209.843 226.733 210.069 226.461C210.318 226.168 210.623 225.987 210.984 225.919C211.346 225.851 211.741 225.953 212.171 226.224C213.165 226.812 214.216 227.241 215.323 227.512C216.43 227.783 217.594 227.919 218.814 227.919C220.599 227.919 221.898 227.625 222.712 227.038C223.525 226.428 223.932 225.648 223.932 224.699C223.932 223.908 223.638 223.287 223.051 222.835C222.486 222.383 221.503 222.01 220.102 221.716L216.374 220.937C214.227 220.485 212.623 219.728 211.561 218.666C210.521 217.581 210.002 216.158 210.002 214.395C210.002 213.288 210.227 212.282 210.679 211.379C211.131 210.475 211.764 209.695 212.577 209.04C213.414 208.385 214.396 207.888 215.526 207.549C216.679 207.187 217.944 207.006 219.322 207.006C220.678 207.006 221.966 207.176 223.186 207.515C224.406 207.854 225.502 208.351 226.474 209.006C226.835 209.255 227.073 209.56 227.186 209.921C227.321 210.283 227.355 210.644 227.287 211.006C227.22 211.345 227.061 211.638 226.813 211.887C226.564 212.136 226.248 212.282 225.864 212.328C225.502 212.373 225.084 212.26 224.61 211.989C223.774 211.514 222.926 211.175 222.068 210.972C221.209 210.769 220.283 210.667 219.288 210.667C218.249 210.667 217.357 210.814 216.611 211.107C215.865 211.401 215.289 211.819 214.882 212.362C214.498 212.881 214.306 213.503 214.306 214.226C214.306 215.039 214.577 215.694 215.12 216.192C215.662 216.666 216.588 217.039 217.899 217.31L221.593 218.09C223.83 218.564 225.491 219.31 226.576 220.327C227.683 221.343 228.236 222.699 228.236 224.394C228.236 225.478 228.01 226.461 227.559 227.343C227.129 228.224 226.497 228.981 225.661 229.614C224.847 230.246 223.864 230.732 222.712 231.071C221.559 231.41 220.26 231.579 218.814 231.579ZM232.032 231.512C231.489 231.512 231.049 231.387 230.71 231.139C230.394 230.89 230.201 230.563 230.134 230.156C230.066 229.727 230.145 229.252 230.371 228.732L239.319 208.904C239.613 208.249 239.963 207.786 240.37 207.515C240.799 207.221 241.285 207.074 241.827 207.074C242.347 207.074 242.81 207.221 243.217 207.515C243.646 207.786 244.008 208.249 244.301 208.904L253.283 228.732C253.532 229.252 253.622 229.727 253.554 230.156C253.487 230.585 253.295 230.924 252.978 231.173C252.662 231.399 252.244 231.512 251.724 231.512C251.091 231.512 250.594 231.365 250.233 231.071C249.894 230.755 249.589 230.28 249.318 229.647L247.115 224.529L248.945 225.716H234.642L236.472 224.529L234.303 229.647C234.009 230.303 233.704 230.777 233.388 231.071C233.071 231.365 232.619 231.512 232.032 231.512ZM241.759 212.057L237.014 223.343L236.133 222.259H247.453L246.606 223.343L241.827 212.057H241.759ZM259.05 231.512C258.395 231.512 257.886 231.331 257.525 230.969C257.186 230.608 257.016 230.088 257.016 229.41V209.243C257.016 208.543 257.186 208.012 257.525 207.65C257.886 207.266 258.349 207.074 258.914 207.074C259.434 207.074 259.818 207.176 260.067 207.379C260.338 207.56 260.654 207.876 261.016 208.328L273.997 225.173H273.116V209.142C273.116 208.486 273.285 207.978 273.624 207.616C273.986 207.255 274.494 207.074 275.15 207.074C275.805 207.074 276.302 207.255 276.641 207.616C276.98 207.978 277.149 208.486 277.149 209.142V229.478C277.149 230.111 276.991 230.608 276.675 230.969C276.358 231.331 275.929 231.512 275.387 231.512C274.867 231.512 274.449 231.41 274.133 231.207C273.839 231.003 273.511 230.676 273.15 230.224L260.202 213.378H261.05V229.41C261.05 230.088 260.88 230.608 260.541 230.969C260.202 231.331 259.705 231.512 259.05 231.512ZM290.607 231.579C289.613 231.579 288.618 231.5 287.624 231.342C286.63 231.207 285.692 230.992 284.811 230.698C283.93 230.382 283.139 229.998 282.438 229.546C282.032 229.275 281.749 228.947 281.591 228.563C281.433 228.179 281.376 227.806 281.422 227.444C281.489 227.06 281.636 226.733 281.862 226.461C282.111 226.168 282.416 225.987 282.777 225.919C283.139 225.851 283.534 225.953 283.964 226.224C284.958 226.812 286.009 227.241 287.116 227.512C288.223 227.783 289.387 227.919 290.607 227.919C292.392 227.919 293.691 227.625 294.505 227.038C295.318 226.428 295.725 225.648 295.725 224.699C295.725 223.908 295.431 223.287 294.844 222.835C294.279 222.383 293.296 222.01 291.895 221.716L288.166 220.937C286.02 220.485 284.416 219.728 283.353 218.666C282.314 217.581 281.794 216.158 281.794 214.395C281.794 213.288 282.02 212.282 282.472 211.379C282.924 210.475 283.557 209.695 284.37 209.04C285.206 208.385 286.189 207.888 287.319 207.549C288.471 207.187 289.737 207.006 291.115 207.006C292.471 207.006 293.759 207.176 294.979 207.515C296.199 207.854 297.295 208.351 298.267 209.006C298.628 209.255 298.866 209.56 298.979 209.921C299.114 210.283 299.148 210.644 299.08 211.006C299.012 211.345 298.854 211.638 298.606 211.887C298.357 212.136 298.041 212.282 297.657 212.328C297.295 212.373 296.877 212.26 296.403 211.989C295.567 211.514 294.719 211.175 293.861 210.972C293.002 210.769 292.076 210.667 291.081 210.667C290.042 210.667 289.149 210.814 288.404 211.107C287.658 211.401 287.082 211.819 286.675 212.362C286.291 212.881 286.099 213.503 286.099 214.226C286.099 215.039 286.37 215.694 286.912 216.192C287.455 216.666 288.381 217.039 289.692 217.31L293.386 218.09C295.623 218.564 297.284 219.31 298.368 220.327C299.476 221.343 300.029 222.699 300.029 224.394C300.029 225.478 299.803 226.461 299.351 227.343C298.922 228.224 298.289 228.981 297.453 229.614C296.64 230.246 295.657 230.732 294.505 231.071C293.352 231.41 292.053 231.579 290.607 231.579Z" fill="black"/>
<path d="M5.70778 271.814C5.03995 271.814 4.52715 271.623 4.16938 271.242C3.81161 270.86 3.63273 270.335 3.63273 269.668V248.166C3.63273 247.474 3.82354 246.949 4.20516 246.592C4.58678 246.21 5.1115 246.019 5.77934 246.019C6.37562 246.019 6.84072 246.138 7.17464 246.377C7.53241 246.592 7.8544 246.973 8.14061 247.522L16.9775 263.872H15.8326L24.6695 247.522C24.9558 246.973 25.2658 246.592 25.5997 246.377C25.9337 246.138 26.3988 246.019 26.995 246.019C27.6629 246.019 28.1757 246.21 28.5334 246.592C28.8912 246.949 29.0701 247.474 29.0701 248.166V269.668C29.0701 270.335 28.8912 270.86 28.5334 271.242C28.1995 271.623 27.6867 271.814 26.995 271.814C26.3272 271.814 25.8144 271.623 25.4566 271.242C25.0989 270.86 24.92 270.335 24.92 269.668V253.103H25.7071L18.1939 266.805C17.9554 267.211 17.705 267.509 17.4426 267.7C17.1802 267.891 16.8225 267.986 16.3693 267.986C15.9161 267.986 15.5464 267.891 15.2602 267.7C14.974 267.485 14.7236 267.187 14.5089 266.805L6.9242 253.067H7.78284V269.668C7.78284 270.335 7.60396 270.86 7.24619 271.242C6.91227 271.623 6.39947 271.814 5.70778 271.814ZM45.9269 271.886C43.494 271.886 41.3594 271.349 39.5228 270.276C37.7101 269.203 36.3029 267.7 35.3011 265.768C34.2994 263.812 33.7985 261.522 33.7985 258.899C33.7985 256.919 34.0847 255.142 34.6572 253.568C35.2296 251.97 36.0405 250.61 37.09 249.489C38.1633 248.345 39.4393 247.474 40.9181 246.878C42.4207 246.258 44.0903 245.948 45.9269 245.948C48.3836 245.948 50.5182 246.484 52.3309 247.557C54.1436 248.607 55.5509 250.098 56.5526 252.03C57.5544 253.962 58.0552 256.239 58.0552 258.863C58.0552 260.843 57.769 262.631 57.1966 264.23C56.6242 265.828 55.8013 267.199 54.728 268.344C53.6785 269.489 52.4025 270.371 50.8999 270.991C49.4211 271.588 47.7634 271.886 45.9269 271.886ZM45.9269 267.95C47.4772 267.95 48.789 267.593 49.8623 266.877C50.9595 266.161 51.7943 265.124 52.3667 263.764C52.963 262.405 53.2611 260.783 53.2611 258.899C53.2611 256.037 52.6172 253.818 51.3292 252.244C50.0651 250.67 48.2643 249.883 45.9269 249.883C44.4004 249.883 43.0886 250.241 41.9914 250.956C40.8943 251.648 40.0475 252.674 39.4513 254.033C38.8788 255.369 38.5926 256.991 38.5926 258.899C38.5926 261.737 39.2366 263.955 40.5246 265.553C41.8125 267.151 43.6133 267.95 45.9269 267.95ZM73.1945 271.886C71.4533 271.886 69.9149 271.659 68.5792 271.206C67.2674 270.753 66.1583 270.085 65.252 269.203C64.3456 268.296 63.6659 267.175 63.2127 265.839C62.7595 264.504 62.5329 262.953 62.5329 261.188V248.345C62.5329 247.557 62.7238 246.973 63.1054 246.592C63.5108 246.21 64.0833 246.019 64.8227 246.019C65.5621 246.019 66.1226 246.21 66.5042 246.592C66.9097 246.973 67.1124 247.557 67.1124 248.345V261.153C67.1124 263.419 67.6252 265.124 68.6508 266.269C69.7002 267.39 71.2148 267.95 73.1945 267.95C75.1741 267.95 76.6767 267.39 77.7023 266.269C78.728 265.124 79.2408 263.419 79.2408 261.153V248.345C79.2408 247.557 79.4316 246.973 79.8132 246.592C80.2187 246.21 80.7911 246.019 81.5305 246.019C82.246 246.019 82.7946 246.21 83.1762 246.592C83.5817 246.973 83.7844 247.557 83.7844 248.345V261.188C83.7844 263.526 83.3789 265.494 82.568 267.092C81.7809 268.69 80.6003 269.894 79.0261 270.705C77.4519 271.492 75.508 271.886 73.1945 271.886ZM91.2718 271.814C90.5802 271.814 90.0435 271.623 89.6619 271.242C89.3041 270.86 89.1252 270.312 89.1252 269.596V248.309C89.1252 247.569 89.3041 247.009 89.6619 246.627C90.0435 246.222 90.5325 246.019 91.1287 246.019C91.6773 246.019 92.0828 246.126 92.3452 246.341C92.6314 246.532 92.9653 246.866 93.3469 247.343L107.049 265.124H106.119V248.201C106.119 247.51 106.298 246.973 106.656 246.592C107.038 246.21 107.574 246.019 108.266 246.019C108.958 246.019 109.482 246.21 109.84 246.592C110.198 246.973 110.377 247.51 110.377 248.201V269.668C110.377 270.335 110.21 270.86 109.876 271.242C109.542 271.623 109.089 271.814 108.516 271.814C107.968 271.814 107.526 271.707 107.193 271.492C106.882 271.278 106.537 270.932 106.155 270.455L92.4883 252.674H93.3827V269.596C93.3827 270.312 93.2038 270.86 92.846 271.242C92.4883 271.623 91.9635 271.814 91.2718 271.814ZM124.26 271.814C123.52 271.814 122.948 271.611 122.543 271.206C122.161 270.777 121.97 270.192 121.97 269.453V250.133H114.994C114.373 250.133 113.885 249.966 113.527 249.633C113.193 249.275 113.026 248.798 113.026 248.201C113.026 247.581 113.193 247.116 113.527 246.806C113.885 246.472 114.373 246.305 114.994 246.305H133.526C134.146 246.305 134.623 246.472 134.957 246.806C135.315 247.116 135.494 247.581 135.494 248.201C135.494 248.798 135.315 249.275 134.957 249.633C134.623 249.966 134.146 250.133 133.526 250.133H126.55V269.453C126.55 270.192 126.359 270.777 125.977 271.206C125.595 271.611 125.023 271.814 124.26 271.814ZM135.564 271.814C134.992 271.814 134.527 271.683 134.169 271.421C133.835 271.158 133.632 270.812 133.561 270.383C133.489 269.93 133.573 269.429 133.811 268.881L143.256 247.951C143.566 247.259 143.936 246.77 144.365 246.484C144.818 246.174 145.331 246.019 145.904 246.019C146.452 246.019 146.941 246.174 147.371 246.484C147.824 246.77 148.205 247.259 148.515 247.951L157.996 268.881C158.259 269.429 158.354 269.93 158.283 270.383C158.211 270.836 158.008 271.194 157.674 271.456C157.34 271.695 156.899 271.814 156.351 271.814C155.683 271.814 155.158 271.659 154.776 271.349C154.419 271.015 154.097 270.514 153.81 269.847L151.485 264.444L153.417 265.696H138.319L140.251 264.444L137.961 269.847C137.651 270.538 137.329 271.039 136.995 271.349C136.661 271.659 136.184 271.814 135.564 271.814ZM145.832 251.278L140.823 263.192L139.893 262.047H151.843L150.948 263.192L145.904 251.278H145.832ZM164.227 271.814C163.487 271.814 162.915 271.611 162.509 271.206C162.128 270.777 161.937 270.192 161.937 269.453V248.38C161.937 247.617 162.128 247.033 162.509 246.627C162.915 246.222 163.487 246.019 164.227 246.019C164.966 246.019 165.526 246.222 165.908 246.627C166.314 247.033 166.516 247.617 166.516 248.38V269.453C166.516 270.192 166.325 270.777 165.944 271.206C165.562 271.611 164.99 271.814 164.227 271.814ZM174.181 271.814C173.489 271.814 172.952 271.623 172.571 271.242C172.213 270.86 172.034 270.312 172.034 269.596V248.309C172.034 247.569 172.213 247.009 172.571 246.627C172.952 246.222 173.441 246.019 174.037 246.019C174.586 246.019 174.992 246.126 175.254 246.341C175.54 246.532 175.874 246.866 176.256 247.343L189.958 265.124H189.028V248.201C189.028 247.51 189.207 246.973 189.565 246.592C189.946 246.21 190.483 246.019 191.175 246.019C191.866 246.019 192.391 246.21 192.749 246.592C193.107 246.973 193.285 247.51 193.285 248.201V269.668C193.285 270.335 193.118 270.86 192.785 271.242C192.451 271.623 191.997 271.814 191.425 271.814C190.876 271.814 190.435 271.707 190.101 271.492C189.791 271.278 189.445 270.932 189.064 270.455L175.397 252.674H176.291V269.596C176.291 270.312 176.113 270.86 175.755 271.242C175.397 271.623 174.872 271.814 174.181 271.814ZM210.942 271.528C210.155 271.528 209.547 271.325 209.118 270.92C208.712 270.49 208.51 269.882 208.51 269.095V248.738C208.51 247.951 208.712 247.355 209.118 246.949C209.547 246.52 210.155 246.305 210.942 246.305H219.529C221.294 246.305 222.797 246.568 224.037 247.092C225.277 247.617 226.219 248.368 226.863 249.346C227.531 250.324 227.865 251.493 227.865 252.852C227.865 254.379 227.424 255.667 226.541 256.716C225.659 257.766 224.454 258.469 222.928 258.827V258.291C224.693 258.553 226.064 259.221 227.042 260.294C228.02 261.367 228.509 262.763 228.509 264.48C228.509 266.722 227.746 268.463 226.219 269.703C224.717 270.92 222.618 271.528 219.922 271.528H210.942ZM212.91 268.058H219.35C220.972 268.058 222.164 267.748 222.928 267.127C223.691 266.483 224.073 265.529 224.073 264.265C224.073 262.977 223.691 262.023 222.928 261.403C222.164 260.783 220.972 260.473 219.35 260.473H212.91V268.058ZM212.91 257.003H218.742C220.316 257.003 221.485 256.704 222.248 256.108C223.035 255.488 223.429 254.582 223.429 253.389C223.429 252.197 223.035 251.302 222.248 250.706C221.485 250.086 220.316 249.776 218.742 249.776H212.91V257.003ZM233.217 271.814C232.645 271.814 232.179 271.683 231.822 271.421C231.488 271.158 231.285 270.812 231.213 270.383C231.142 269.93 231.225 269.429 231.464 268.881L240.909 247.951C241.219 247.259 241.589 246.77 242.018 246.484C242.471 246.174 242.984 246.019 243.556 246.019C244.105 246.019 244.594 246.174 245.023 246.484C245.476 246.77 245.858 247.259 246.168 247.951L255.649 268.881C255.911 269.429 256.007 269.93 255.935 270.383C255.864 270.836 255.661 271.194 255.327 271.456C254.993 271.695 254.552 271.814 254.003 271.814C253.335 271.814 252.811 271.659 252.429 271.349C252.071 271.015 251.749 270.514 251.463 269.847L249.138 264.444L251.07 265.696H235.972L237.904 264.444L235.614 269.847C235.304 270.538 234.982 271.039 234.648 271.349C234.314 271.659 233.837 271.814 233.217 271.814ZM243.485 251.278L238.476 263.192L237.546 262.047H249.495L248.601 263.192L243.556 251.278H243.485ZM268.004 271.886C266.954 271.886 265.905 271.802 264.855 271.635C263.806 271.492 262.816 271.266 261.886 270.956C260.956 270.622 260.121 270.216 259.382 269.739C258.952 269.453 258.654 269.107 258.487 268.702C258.32 268.296 258.261 267.903 258.308 267.521C258.38 267.116 258.535 266.77 258.773 266.483C259.036 266.173 259.358 265.983 259.739 265.911C260.121 265.839 260.538 265.947 260.992 266.233C262.041 266.853 263.15 267.306 264.319 267.593C265.488 267.879 266.716 268.022 268.004 268.022C269.888 268.022 271.26 267.712 272.118 267.092C272.977 266.448 273.406 265.625 273.406 264.623C273.406 263.788 273.096 263.132 272.476 262.655C271.88 262.178 270.842 261.785 269.363 261.475L265.428 260.652C263.162 260.175 261.469 259.376 260.348 258.255C259.25 257.11 258.702 255.607 258.702 253.747C258.702 252.578 258.94 251.517 259.417 250.563C259.894 249.609 260.562 248.786 261.421 248.094C262.303 247.402 263.341 246.878 264.533 246.52C265.75 246.138 267.086 245.948 268.54 245.948C269.972 245.948 271.331 246.126 272.619 246.484C273.907 246.842 275.064 247.367 276.089 248.058C276.471 248.321 276.721 248.643 276.841 249.024C276.984 249.406 277.02 249.788 276.948 250.169C276.876 250.527 276.71 250.837 276.447 251.099C276.185 251.362 275.851 251.517 275.445 251.565C275.064 251.612 274.623 251.493 274.122 251.207C273.239 250.706 272.345 250.348 271.438 250.133C270.532 249.919 269.554 249.811 268.505 249.811C267.408 249.811 266.465 249.966 265.678 250.277C264.891 250.587 264.283 251.028 263.854 251.6C263.448 252.149 263.245 252.805 263.245 253.568C263.245 254.427 263.532 255.118 264.104 255.643C264.677 256.144 265.654 256.537 267.038 256.824L270.938 257.647C273.299 258.147 275.052 258.935 276.197 260.008C277.365 261.081 277.95 262.512 277.95 264.301C277.95 265.446 277.711 266.483 277.234 267.414C276.781 268.344 276.113 269.143 275.231 269.811C274.372 270.479 273.335 270.991 272.118 271.349C270.902 271.707 269.53 271.886 268.004 271.886ZM284.313 271.528C283.526 271.528 282.918 271.325 282.488 270.92C282.083 270.49 281.88 269.882 281.88 269.095V248.738C281.88 247.951 282.083 247.355 282.488 246.949C282.918 246.52 283.526 246.305 284.313 246.305H297.085C297.682 246.305 298.135 246.46 298.445 246.77C298.779 247.08 298.946 247.522 298.946 248.094C298.946 248.69 298.779 249.156 298.445 249.489C298.135 249.8 297.682 249.955 297.085 249.955H286.281V256.895H296.298C296.918 256.895 297.384 257.05 297.694 257.36C298.004 257.67 298.159 258.124 298.159 258.72C298.159 259.316 298.004 259.769 297.694 260.079C297.384 260.389 296.918 260.545 296.298 260.545H286.281V267.879H297.085C297.682 267.879 298.135 268.034 298.445 268.344C298.779 268.654 298.946 269.107 298.946 269.703C298.946 270.3 298.779 270.753 298.445 271.063C298.135 271.373 297.682 271.528 297.085 271.528H284.313Z" fill="black"/>
</svg>
